<?xml version="1.0" encoding="UTF-8"?>
<svg xmlns="http://www.w3.org/2000/svg" width="1254" height="1254" viewBox="0 0 1254 1254">
  <defs>
    <filter id="grain-defense" x="-20%" y="-20%" width="140%" height="140%">
      <feTurbulence type="fractalNoise" baseFrequency="0.82" numOctaves="3" seed="91" result="noise"/>
      <feColorMatrix type="saturate" values="0"/>
      <feComponentTransfer><feFuncA type="table" tableValues="0 0.08"/></feComponentTransfer>
    </filter>
    <filter id="softShadow-defense" x="-40%" y="-40%" width="180%" height="180%">
      <feDropShadow dx="0" dy="22" stdDeviation="28" flood-color="#1b130d" flood-opacity="0.22"/>
    </filter>
    <linearGradient id="gold-defense" x1="0" y1="0" x2="1" y2="1">
      <stop offset="0" stop-color="#f2d38a"/>
      <stop offset="0.55" stop-color="#c88a45"/>
      <stop offset="1" stop-color="#7f5031"/>
    </linearGradient>
    <linearGradient id="blue-defense" x1="0" y1="0" x2="1" y2="1">
      <stop offset="0" stop-color="#c6d5e4"/>
      <stop offset="1" stop-color="#5c7288"/>
    </linearGradient>
  </defs>
  
  <rect width="1254" height="1254" fill="#17130f"/>
  <radialGradient id="defGlow" cx="48%" cy="46%" r="70%"><stop offset="0" stop-color="#483225"/><stop offset="0.44" stop-color="#211914"/><stop offset="1" stop-color="#111827"/></radialGradient>
  <rect width="1254" height="1254" fill="url(#defGlow)"/>
  <circle cx="620" cy="620" r="360" fill="#f2c879" opacity="0.08"/>
  <circle cx="1030" cy="250" r="220" fill="#a8b8e8" opacity="0.12"/>
  <rect width="1254" height="1254" opacity="0.55" filter="url(#grain-defense)"/>
  
  
  <g stroke="#d6c4aa" stroke-width="18" stroke-linecap="round" stroke-linejoin="round" opacity="0.75" filter="url(#softShadow-defense)">
    <path d="M134 392 L420 500"/>
    <path d="M420 500 L366 512 M420 500 L388 454"/>
    <path d="M160 704 L406 650"/>
    <path d="M406 650 L360 626 M406 650 L372 694"/>
    <path d="M220 920 L478 758"/>
    <path d="M478 758 L424 762 M478 758 L450 806"/>
  </g>
  <g stroke="#f2c879" stroke-width="8" stroke-linecap="round" opacity="0.8">
    <path d="M493 472 C438 448 410 426 392 384" fill="none"/>
    <path d="M488 650 C432 676 396 704 370 752" fill="none"/>
    <path d="M533 792 C488 834 460 880 450 930" fill="none"/>
  </g>
  <g filter="url(#softShadow-defense)">
    <path d="M626 270 C768 318 874 380 904 478 C958 654 864 820 626 956 C388 820 294 654 350 478 C380 380 484 318 626 270Z" fill="#fff7e8" opacity="0.13" stroke="#fff7e8" stroke-width="10"/>
    <path d="M626 316 C740 358 824 414 848 494 C890 634 812 760 626 876 C440 760 362 634 404 494 C428 414 512 358 626 316Z" fill="#b7c7d8" opacity="0.22" stroke="#fff7e8" stroke-width="8"/>
    <path d="M504 438 C552 414 600 434 626 486 C652 434 700 414 748 438 C814 472 820 558 774 626 C732 688 666 740 626 770 C586 740 520 688 478 626 C432 558 438 472 504 438Z" fill="#e87563"/>
    <path d="M526 470 C554 452 594 466 626 526 C658 466 698 452 726 470 C768 496 762 554 728 606 C700 650 654 688 626 710 C598 688 552 650 524 606 C490 554 484 496 526 470Z" fill="#ffbd80" opacity="0.95"/>
    <path d="M525 474 C552 452 594 468 626 526" fill="none" stroke="#fff0d0" stroke-width="14" stroke-linecap="round" opacity="0.55"/>
    <circle cx="626" cy="610" r="230" fill="none" stroke="#f9e6bd" stroke-width="6" opacity="0.28"/>
    <circle cx="626" cy="610" r="292" fill="none" stroke="#a8b8e8" stroke-width="5" opacity="0.2"/>
  </g>
  <g fill="#f2c879" opacity="0.9">
    <circle cx="488" cy="468" r="9"/><circle cx="458" cy="444" r="5"/><circle cx="480" cy="680" r="7"/><circle cx="520" cy="792" r="5"/>
  </g>
</svg>